:FULLY-SPECIFIED
:FORCE-ALL-JOINTS-BE-3DOF
:DEGREES
170
root 6.29649 16.1638 -25.6475 2.9431 22.9422 0.596271
lfemur -17.9658 17.5927 -5.57167
ltibia 34.0066 0 0
lfoot -8.67279 -8.37021 0
ltoes 27.9831 0 0
rfemur -31.8592 -13.2027 1.24131
rtibia 67.3976 0 0
rfoot -0.008075 -12.2059 0
rtoes 23.1837 0 0
lowerback 1.79746 -4.08824 -1.96406
upperback 0.645171 -5.52299 -3.28738
thorax -0.21667 -2.74543 -2.03747
lowerneck -10.9388 -5.57972 0.47448
upperneck 2.09611 -7.77705 5.16636
head 2.77366 -3.66569 1.14116
lclavicle 2.3028e-14 2.42517e-14 0
lhumerus -48.4919 -41.1059 110.01
lradius 51.2888 0 0
lwrist 15.471 0 0
lhand 35.9751 25.8441 0
lfingers 7.12502 0 0
lthumb 58.9498 40.4217 0
rclavicle 2.3028e-14 2.42517e-14 0
rhumerus -55.3286 2.72259 -85.7702
rradius 99.5479 0 0
rwrist -3.47141 0 0
rhand 10.2942 -10.1832 0
rfingers 7.12502 0 0
rthumb 35.3331 -396.05 0
171
root 6.24842 16.1545 -25.6239 3.1997 22.6848 0.715007
lfemur -17.9292 16.9094 -4.95374
ltibia 33.9413 0 0
lfoot -8.70689 -9.90033 0
ltoes 27.3871 0 0
rfemur -30.0506 -12.3568 0.4453
rtibia 64.6846 0 0
rfoot -1.55613 -13.2779 0
rtoes 25.0578 0 0
lowerback 1.39643 -3.89011 -1.80309
upperback 0.568424 -5.2428 -3.49564
thorax -0.112896 -2.60618 -2.37846
lowerneck -10.931 -5.68592 0.611307
upperneck 2.12962 -7.93948 5.18519
head 2.78251 -3.74354 1.11353
lclavicle 2.8741e-14 2.43842e-14 0
lhumerus -49.0163 -41.2936 110.501
lradius 51.4368 0 0
lwrist 15.7183 0 0
lhand 36.2403 26.2482 0
lfingers 7.12502 0 0
lthumb 59.1803 40.6125 0
rclavicle 2.8741e-14 2.43842e-14 0
rhumerus -55.2983 4.12713 -86.575
rradius 99.6892 0 0
rwrist -3.23665 0 0
rhand 9.43222 -10.6741 0
rfingers 7.12502 0 0
rthumb 34.5202 -396.77 0
172
root 6.20036 16.1453 -25.6004 3.45629 22.4275 0.833742
lfemur -17.8925 16.226 -4.33582
ltibia 33.8759 0 0
lfoot -8.741 -11.4305 0
ltoes 26.791 0 0
rfemur -28.242 -11.5109 -0.350713
rtibia 61.9716 0 0
rfoot -3.10419 -14.3499 0
rtoes 26.9319 0 0
lowerback 0.995396 -3.69199 -1.64212
upperback 0.491677 -4.96261 -3.7039
thorax -0.009122 -2.46693 -2.71945
lowerneck -10.9232 -5.79213 0.748133
upperneck 2.16312 -8.1019 5.20402
head 2.79136 -3.82139 1.08591
lclavicle 3.4454e-14 2.45168e-14 0
lhumerus -49.5406 -41.4813 110.992
lradius 51.5848 0 0
lwrist 15.9657 0 0
lhand 36.5055 26.6523 0
lfingers 7.12502 0 0
lthumb 59.4107 40.8034 0
rclavicle 3.4454e-14 2.45168e-14 0
rhumerus -55.268 5.53168 -87.3798
rradius 99.8304 0 0
rwrist -3.0019 0 0
rhand 8.57023 -11.165 0
rfingers 7.12502 0 0
rthumb 33.7073 -397.49 0
173
root 6.15229 16.1361 -25.5769 3.71289 22.1701 0.952478
lfemur -17.8559 15.5427 -3.7179
ltibia 33.8106 0 0
lfoot -8.77511 -12.9606 0
ltoes 26.195 0 0
rfemur -26.4334 -10.6649 -1.14672
rtibia 59.2585 0 0
rfoot -4.65225 -15.422 0
rtoes 28.806 0 0
lowerback 0.594365 -3.49387 -1.48115
upperback 0.41493 -4.68242 -3.91216
thorax 0.094652 -2.32768 -3.06044
lowerneck -10.9154 -5.89833 0.88496
upperneck 2.19663 -8.26433 5.22285
head 2.8002 -3.89923 1.05828
lclavicle 4.0167e-14 2.46493e-14 0
lhumerus -50.0649 -41.669 111.483
lradius 51.7329 0 0
lwrist 16.2131 0 0
lhand 36.7708 27.0565 0
lfingers 7.12502 0 0
lthumb 59.6412 40.9943 0
rclavicle 4.0167e-14 2.46493e-14 0
rhumerus -55.2377 6.93622 -88.1846
rradius 99.9716 0 0
rwrist -2.76714 0 0
rhand 7.70824 -11.6559 0
rfingers 7.12502 0 0
rthumb 32.8945 -398.21 0
174
root 6.10423 16.1269 -25.5533 3.96949 21.9128 1.07121
lfemur -17.8193 14.8593 -3.09998
ltibia 33.7453 0 0
lfoot -8.80921 -14.4907 0
ltoes 25.599 0 0
rfemur -24.6248 -9.81903 -1.94274
rtibia 56.5455 0 0
rfoot -6.20031 -16.494 0
rtoes 30.6801 0 0
lowerback 0.193334 -3.29575 -1.32018
upperback 0.338182 -4.40223 -4.12041
thorax 0.198426 -2.18842 -3.40143
lowerneck -10.9076 -6.00454 1.02179
upperneck 2.23013 -8.42676 5.24169
head 2.80905 -3.97708 1.03065
lclavicle 4.58799e-14 2.47818e-14 0
lhumerus -50.5893 -41.8567 111.973
lradius 51.881 0 0
lwrist 16.4604 0 0
lhand 37.036 27.4606 0
lfingers 7.12502 0 0
lthumb 59.8717 41.1851 0
rclavicle 4.58799e-14 2.47818e-14 0
rhumerus -55.2074 8.34077 -88.9894
rradius 100.113 0 0
rwrist -2.53239 0 0
rhand 6.84624 -12.1468 0
rfingers 7.12502 0 0
rthumb 32.0816 -398.93 0
175
root 6.05616 16.1177 -25.5298 4.22608 21.6554 1.18995
lfemur -17.7826 14.176 -2.48205
ltibia 33.68 0 0
lfoot -8.84332 -16.0208 0
ltoes 25.003 0 0
rfemur -22.8162 -8.97312 -2.73875
rtibia 53.8325 0 0
rfoot -7.74837 -17.566 0
rtoes 32.5542 0 0
lowerback -0.207697 -3.09763 -1.15921
upperback 0.261435 -4.12204 -4.32867
thorax 0.3022 -2.04917 -3.74242
lowerneck -10.8997 -6.11074 1.15861
upperneck 2.26364 -8.58919 5.26052
head 2.8179 -4.05493 1.00302
lclavicle 5.15929e-14 2.49143e-14 0
lhumerus -51.1136 -42.0444 112.464
lradius 52.029 0 0
lwrist 16.7078 0 0
lhand 37.3012 27.8647 0
lfingers 7.12502 0 0
lthumb 60.1021 41.376 0
rclavicle 5.15929e-14 2.49143e-14 0
rhumerus -55.1771 9.74532 -89.7942
rradius 100.254 0 0
rwrist -2.29763 0 0
rhand 5.98425 -12.6378 0
rfingers 7.12502 0 0
rthumb 31.2688 -399.65 0
176
root 6.0081 16.1084 -25.5063 4.48268 21.3981 1.30868
lfemur -17.746 13.4926 -1.86413
ltibia 33.6147 0 0
lfoot -8.87743 -17.5509 0
ltoes 24.407 0 0
rfemur -21.0076 -8.12722 -3.53476
rtibia 51.1195 0 0
rfoot -9.29642 -18.638 0
rtoes 34.4282 0 0
lowerback -0.608727 -2.8995 -0.998241
upperback 0.184688 -3.84185 -4.53693
thorax 0.405974 -1.90992 -4.08341
lowerneck -10.8919 -6.21695 1.29544
upperneck 2.29714 -8.75162 5.27935
head 2.82675 -4.13278 0.975396
lclavicle 5.73059e-14 2.50468e-14 0
lhumerus -51.638 -42.2321 112.955
lradius 52.1771 0 0
lwrist 16.9552 0 0
lhand 37.5664 28.2688 0
lfingers 7.12502 0 0
lthumb 60.3326 41.5669 0
rclavicle 5.73059e-14 2.50468e-14 0
rhumerus -55.1467 11.1499 -90.5989
rradius 100.395 0 0
rwrist -2.06288 0 0
rhand 5.12226 -13.1287 0
rfingers 7.12502 0 0
rthumb 30.4559 -400.37 0
